<?xml version="1.0" encoding="utf-8"?>
<!-- Generator: Adobe Illustrator 27.3.1, SVG Export Plug-In . SVG Version: 6.00 Build 0)  -->
<svg version="1.2" baseProfile="tiny" id="Layer_1" xmlns="http://www.w3.org/2000/svg" xmlns:xlink="http://www.w3.org/1999/xlink"
	 x="0px" y="0px" viewBox="0 0 72 72" overflow="visible" xml:space="preserve">
<g>
	<path fill="#6D6E71" d="M35.09,67.63c-17.61,0-31.94-14.33-31.94-31.94c0-17.61,14.33-31.94,31.94-31.94s31.94,14.33,31.94,31.94
		C67.03,53.3,52.7,67.63,35.09,67.63z"/>
	<path fill="#6D6E71" d="M35.09,4.25c17.33,0,31.44,14.1,31.44,31.44s-14.1,31.44-31.44,31.44S3.66,53.02,3.66,35.69
		S17.76,4.25,35.09,4.25 M35.09,3.25c-17.91,0-32.44,14.52-32.44,32.44s14.52,32.44,32.44,32.44S67.53,53.6,67.53,35.69
		S53.01,3.25,35.09,3.25L35.09,3.25z"/>
</g>
<g>
	
		<ellipse transform="matrix(0.7071 -0.7071 0.7071 0.7071 -14.6506 36.678)" fill="#8DC63F" cx="36.95" cy="36.02" rx="32.44" ry="32.44"/>
</g>
<g>
	<g>
		<path fill="#FFFFFF" d="M25.76,44.1c1.1,5.64,5.58,8.56,10.45,8.56c6.29,0,10.38-2.27,10.38-8.43c0-4.41-2.08-7.59-10.32-9.8
			c-8.43-2.21-12.85-4.93-12.85-11.61c0-6.23,4.93-10.83,12.52-10.83c10.06,0,12.91,6.16,13.3,9.99h-3.37
			c-1.1-4.02-3.7-7.07-9.99-7.07c-6.55,0-8.95,3.57-8.95,7.59c0,4.35,2.4,6.81,9.73,8.69c10.77,2.85,13.5,6.94,13.5,12.78
			c0,7.33-5,11.68-14.14,11.61c-8.05-0.06-12.85-4.87-13.56-11.48H25.76z M34.97,61.62V7.38h3.05v54.24H34.97z"/>
	</g>
</g>
</svg>
