<?xml version="1.0" encoding="utf-8"?>
<!-- Generator: Adobe Illustrator 27.3.1, SVG Export Plug-In . SVG Version: 6.00 Build 0)  -->
<svg version="1.1" id="Layer_1" xmlns="http://www.w3.org/2000/svg" xmlns:xlink="http://www.w3.org/1999/xlink" x="0px" y="0px"
	 viewBox="0 0 800 800" style="enable-background:new 0 0 800 800;" xml:space="preserve">
<style type="text/css">
	.st0{fill:#231F20;}
	.st1{fill:#8DC63F;}
</style>
<g>
	<g>
		<path class="st0" d="M269.6,431.61h-3.55c-0.27-0.65-0.42-2.77-0.49-6.51c-1.72,3.05-5.3,7.06-13.88,7.06
			c-12.58,0-19.14-9.57-19.14-22c0-13.07,7.01-22.9,20-22.9c9.76,0,16.08,5.19,17.4,13.14h-4.47c-1.7-5.6-5.65-9.25-13.05-9.25
			c-10.58,0-15.14,8.32-15.14,18.78c0,9.55,4.47,18.32,14.79,18.32c10.42,0,13.2-6.85,13.2-15.5v-0.48h-13.31v-3.96h17.64V431.61z"
			/>
		<path class="st0" d="M305.42,415.79c0,8.91-5.02,16.58-14.52,16.58c-8.75,0-14.12-7-14.12-16.5c0-9.15,5.15-16.54,14.46-16.54
			C299.79,399.33,305.42,405.89,305.42,415.79z M281.16,415.85c0,7.23,3.77,12.83,9.99,12.83c6.33,0,9.91-5.23,9.91-12.82
			c0-7.28-3.53-12.84-10.03-12.84C284.42,403.02,281.16,408.45,281.16,415.85z"/>
		<path class="st0" d="M339.13,415.79c0,8.91-5.02,16.58-14.52,16.58c-8.75,0-14.12-7-14.12-16.5c0-9.15,5.15-16.54,14.46-16.54
			C333.5,399.33,339.13,405.89,339.13,415.79z M314.86,415.85c0,7.23,3.77,12.83,9.99,12.83c6.33,0,9.91-5.23,9.91-12.82
			c0-7.28-3.53-12.84-10.03-12.84C318.13,403.02,314.86,408.45,314.86,415.85z"/>
		<path class="st0" d="M371.79,385.52v37.09c0,3,0,5.9,0.06,9h-4.03c-0.14-0.79-0.22-3.51-0.23-4.92
			c-1.57,3.59-4.94,5.67-10.28,5.67c-8.16,0-13.1-6.63-13.1-16.16c0-9.71,5.37-16.87,14.01-16.87c5.97,0,8.48,2.5,9.38,4.41v-18.22
			H371.79z M348.6,416.06c0,8.17,4.09,12.59,9.29,12.59c7.89,0,9.86-5.6,9.86-13.42c0-7.62-1.73-12.18-9.36-12.18
			C352.47,403.05,348.6,407.77,348.6,416.06z"/>
		<path class="st0" d="M382.64,387.88h15.94c8.77,0,13.18,4.63,13.18,10.83c0,5.14-3.03,8.48-6.54,9.55
			c3.09,0.92,8.04,3.99,8.04,10.66c0,8.52-6.44,12.71-14.36,12.71h-16.26V387.88z M397.46,406.41c7.01,0,9.7-2.67,9.7-7.37
			c0-4.11-2.9-7.28-8.57-7.28h-11.56v14.65H397.46z M387.02,427.74h11.63c5.63,0,10-2.74,10-8.73c0-5.19-3.33-8.72-11.49-8.72
			h-10.13V427.74z"/>
		<path class="st0" d="M447.71,415.79c0,8.91-5.01,16.58-14.52,16.58c-8.75,0-14.12-7-14.12-16.5c0-9.15,5.15-16.54,14.46-16.54
			C442.08,399.33,447.71,405.89,447.71,415.79z M423.44,415.85c0,7.23,3.77,12.83,9.99,12.83c6.33,0,9.9-5.23,9.9-12.82
			c0-7.28-3.53-12.84-10.03-12.84C426.7,403.02,423.44,408.45,423.44,415.85z"/>
		<path class="st0" d="M481.42,415.79c0,8.91-5.02,16.58-14.52,16.58c-8.75,0-14.12-7-14.12-16.5c0-9.15,5.15-16.54,14.46-16.54
			C475.78,399.33,481.42,405.89,481.42,415.79z M457.15,415.85c0,7.23,3.77,12.83,9.99,12.83c6.33,0,9.91-5.23,9.91-12.82
			c0-7.28-3.53-12.84-10.03-12.84C460.41,403.02,457.15,408.45,457.15,415.85z"/>
		<path class="st0" d="M509.93,426.63c-1.56,3.46-4.5,5.74-10.41,5.74c-7.21,0-13.04-5.85-13.04-16.15
			c0-10.77,6.37-16.88,13.84-16.88c6.17,0,8.86,2.94,9.61,5.15c-0.04-1.28,0.08-2.92,0.16-4.4h4c-0.05,3.52-0.06,5.85-0.06,8.74
			v35.3h-4.1V426.63z M490.88,416.01c0,6.64,3.05,12.64,9.55,12.64c7.36,0,9.63-4.98,9.63-12.96c0-7.91-1.97-12.58-9.4-12.58
			C494.3,403.11,490.88,408.5,490.88,416.01z"/>
		<path class="st1" d="M526.91,419.84c1.36,5.14,5.54,7.68,11.57,7.68c5.97,0,9.59-2.42,9.59-6.83c0-3.66-1.6-6.21-11.01-8.14
			c-11.33-2.3-14.82-5.97-14.82-12.24c0-5.63,4.48-11.55,15.07-11.55c11.26,0,15.45,5.89,16.06,11.14h-6.04
			c-0.82-3.52-3.57-6.34-10.41-6.34c-6.72,0-8.6,3.22-8.6,6.17c0,3.64,2.31,5.48,10.69,7.11c12.79,2.5,15.36,7.53,15.36,13.08
			c0,7.25-5.79,12.43-16.39,12.43c-9.55,0-15.8-4.6-17.21-12.53H526.91z M535.97,438.14v-54.09h4.14v54.09H535.97z"/>
	</g>
</g>
</svg>
